<svg width="32" height="32" viewBox="0 0 32 32" fill="none" xmlns="http://www.w3.org/2000/svg">
<g filter="url(#filter0_bd_761_16759)">
<path d="M16.5 12C16.3674 12 16.2402 12.0527 16.1465 12.1465C16.0527 12.2402 16 12.3674 16 12.5V19.5C16 19.6326 16.0527 19.7598 16.1464 19.8536C16.2402 19.9473 16.3674 20 16.5 20C16.6326 20 16.7598 19.9473 16.8536 19.8536C16.9473 19.7598 17 19.6326 17 19.5V12.5C17 12.3674 16.9473 12.2402 16.8535 12.1465C16.7598 12.0527 16.6326 12 16.5 12Z" fill="white"/>
<path d="M22.25 12H19.25C19.1174 12 18.9902 12.0527 18.8965 12.1465C18.8027 12.2402 18.75 12.3674 18.75 12.5V19.5C18.75 19.6326 18.8027 19.7598 18.8964 19.8536C18.9902 19.9473 19.1174 20 19.25 20C19.3826 20 19.5098 19.9473 19.6036 19.8536C19.6973 19.7598 19.75 19.6326 19.75 19.5V16.5H21.5C21.6326 16.5 21.7598 16.4473 21.8536 16.3536C21.9473 16.2598 22 16.1326 22 16C22 15.8674 21.9473 15.7402 21.8536 15.6464C21.7598 15.5527 21.6326 15.5 21.5 15.5H19.75V13H22.25C22.3826 13 22.5098 12.9473 22.6036 12.8536C22.6973 12.7598 22.75 12.6326 22.75 12.5C22.75 12.3674 22.6973 12.2402 22.6036 12.1464C22.5098 12.0527 22.3826 12 22.25 12Z" fill="white"/>
<path d="M14 15.5H12.5C12.3674 15.5 12.2402 15.5527 12.1464 15.6465C12.0527 15.7402 12 15.8674 12 16C12 16.1326 12.0527 16.2598 12.1464 16.3536C12.2402 16.4473 12.3674 16.5 12.5 16.5H13.5V17.5C13.5 17.8978 13.342 18.2794 13.0607 18.5607C12.7794 18.842 12.3978 19 12 19C11.6022 19 11.2206 18.842 10.9393 18.5607C10.658 18.2794 10.5 17.8978 10.5 17.5V14.5C10.5001 14.1349 10.6333 13.7824 10.8746 13.5085C11.116 13.2345 11.4489 13.058 11.8111 13.012C12.1733 12.9659 12.5398 13.0535 12.842 13.2584C13.1442 13.4632 13.3614 13.7712 13.4528 14.1246C13.4691 14.1883 13.4978 14.2481 13.5373 14.3006C13.5767 14.3532 13.6261 14.3974 13.6827 14.4309C13.7392 14.4643 13.8018 14.4863 13.8669 14.4955C13.9319 14.5048 13.9981 14.5011 14.0618 14.4847C14.1254 14.4683 14.1852 14.4396 14.2377 14.4001C14.2902 14.3606 14.3344 14.3111 14.3678 14.2545C14.4012 14.1979 14.4231 14.1353 14.4322 14.0703C14.4414 14.0052 14.4376 13.939 14.4212 13.8754C14.2691 13.2861 13.9073 12.7726 13.4037 12.431C12.9001 12.0895 12.2891 11.9433 11.6855 12.0199C11.0818 12.0965 10.5267 12.3907 10.1244 12.8473C9.72207 13.3038 9.50007 13.8915 9.5 14.5V17.5C9.5 18.163 9.76339 18.7989 10.2322 19.2678C10.7011 19.7366 11.337 20 12 20C12.663 20 13.2989 19.7366 13.7678 19.2678C14.2366 18.7989 14.5 18.163 14.5 17.5V16C14.5 15.8674 14.4473 15.7402 14.3535 15.6465C14.2598 15.5527 14.1326 15.5 14 15.5Z" fill="white"/>
</g>
<defs>
<filter id="filter0_bd_761_16759" x="-10" y="-10" width="52" height="52" filterUnits="userSpaceOnUse" color-interpolation-filters="sRGB">
<feFlood flood-opacity="0" result="BackgroundImageFix"/>
<feGaussianBlur in="BackgroundImageFix" stdDeviation="5"/>
<feComposite in2="SourceAlpha" operator="in" result="effect1_backgroundBlur_761_16759"/>
<feColorMatrix in="SourceAlpha" type="matrix" values="0 0 0 0 0 0 0 0 0 0 0 0 0 0 0 0 0 0 127 0" result="hardAlpha"/>
<feOffset dy="1"/>
<feGaussianBlur stdDeviation="1.5"/>
<feColorMatrix type="matrix" values="0 0 0 0 0 0 0 0 0 0 0 0 0 0 0 0 0 0 0.2 0"/>
<feBlend mode="normal" in2="effect1_backgroundBlur_761_16759" result="effect2_dropShadow_761_16759"/>
<feBlend mode="normal" in="SourceGraphic" in2="effect2_dropShadow_761_16759" result="shape"/>
</filter>
</defs>
</svg>
