<svg width="40" height="40" viewBox="0 0 40 40" fill="none" xmlns="http://www.w3.org/2000/svg">
<path d="M8.40799 31.6243C10.2985 33.4673 13.1029 33.5277 14.9605 31.3846C16.4073 29.7098 19.5379 24.6735 22.4337 21.8474C23.7962 20.5177 25.2758 20.6961 26.851 20.5344C27.8694 20.4299 28.392 19.3876 28.1158 18.4018L26.7215 13.4258C26.4969 12.62 26.8392 11.9478 27.7748 11.6965L30.1797 11.0541C31.1684 10.79 31.6941 9.72858 30.9693 9.00611V9.00611C28.3602 6.40125 24.032 6.35175 21.4419 8.74897C17.6635 12.2611 20.4608 15.8832 18.1375 18.1467C15.1153 21.0874 10.9177 23.2399 8.64952 25.2208C6.48453 27.099 6.49946 29.7636 8.40799 31.6243ZM11.6513 29.7441C10.9265 29.7441 10.3275 29.1683 10.3275 28.459C10.3275 27.7517 10.9265 27.1671 11.6513 27.1671C12.3801 27.1671 12.9681 27.7517 12.9681 28.459C12.9681 29.1683 12.3801 29.7441 11.6513 29.7441ZM22.0365 15.4201C21.7909 15.4844 21.5785 15.3646 21.5036 15.1113C21.4396 14.9127 21.5734 14.677 21.804 14.6146L24.3453 13.9493C24.5539 13.8957 24.7895 14.0243 24.8503 14.2473C24.9311 14.4918 24.7845 14.71 24.5539 14.7723L22.0365 15.4201ZM22.3599 16.6797C22.1164 16.744 21.9058 16.6222 21.822 16.369C21.7541 16.1722 21.8968 15.9366 22.1274 15.883L24.6598 15.2088C24.8683 15.1641 25.1059 15.2819 25.1717 15.5069C25.2506 15.7533 25.0989 15.9696 24.8683 16.0319L22.3599 16.6797ZM22.6743 17.9374C22.4437 18.0016 22.1983 17.8819 22.1543 17.6286C22.1015 17.4105 22.2262 17.2049 22.4618 17.1426L24.9851 16.486C25.2266 16.4129 25.4552 16.5503 25.5031 16.7626C25.5619 16.9807 25.4243 17.2145 25.2157 17.2681L22.6743 17.9374ZM29.4829 17.9831C29.6992 18.7607 30.5972 19.1036 31.1801 18.5455V18.5455C31.9607 17.8238 32.5211 16.9025 32.7999 15.9766C33.1269 14.8904 32.0065 14.1728 30.9119 14.4705L29.5761 14.8338V14.8338C29.1395 14.9495 28.7615 15.39 28.8826 15.8252L29.4829 17.9831Z" fill="white"/>
</svg>
