<svg width="40" height="40" viewBox="0 0 40 40" fill="none" xmlns="http://www.w3.org/2000/svg">
<g filter="url(#filter0_bd_718_13630)">
<path d="M24 9.5C24 11.433 22.433 13 20.5 13C18.567 13 17 11.433 17 9.5C17 7.567 18.567 6 20.5 6C22.433 6 24 7.567 24 9.5Z" fill="white"/>
<path d="M24 19.5C24 21.433 22.433 23 20.5 23C18.567 23 17 21.433 17 19.5C17 17.567 18.567 16 20.5 16C22.433 16 24 17.567 24 19.5Z" fill="white"/>
<path d="M24 30.5C24 32.433 22.433 34 20.5 34C18.567 34 17 32.433 17 30.5C17 28.567 18.567 27 20.5 27C22.433 27 24 28.567 24 30.5Z" fill="white"/>
</g>
<defs>
<filter id="filter0_bd_718_13630" x="-10" y="-10" width="60" height="60" filterUnits="userSpaceOnUse" color-interpolation-filters="sRGB">
<feFlood flood-opacity="0" result="BackgroundImageFix"/>
<feGaussianBlur in="BackgroundImageFix" stdDeviation="5"/>
<feComposite in2="SourceAlpha" operator="in" result="effect1_backgroundBlur_718_13630"/>
<feColorMatrix in="SourceAlpha" type="matrix" values="0 0 0 0 0 0 0 0 0 0 0 0 0 0 0 0 0 0 127 0" result="hardAlpha"/>
<feOffset dy="1"/>
<feGaussianBlur stdDeviation="1.5"/>
<feColorMatrix type="matrix" values="0 0 0 0 0 0 0 0 0 0 0 0 0 0 0 0 0 0 0.2 0"/>
<feBlend mode="normal" in2="effect1_backgroundBlur_718_13630" result="effect2_dropShadow_718_13630"/>
<feBlend mode="normal" in="SourceGraphic" in2="effect2_dropShadow_718_13630" result="shape"/>
</filter>
</defs>
</svg>
