<svg width="40" height="40" viewBox="0 0 40 40" fill="none" xmlns="http://www.w3.org/2000/svg">
<g filter="url(#filter0_bd_718_13646)">
<path d="M14.6747 29.4653H17.4246C18.5243 29.4653 19.0971 28.8925 19.0971 27.7832V11.6725C19.0971 10.5449 18.5243 10.0084 17.4246 10H14.6747C13.575 10 13.0001 10.5728 13.0001 11.6725V27.7832C12.9937 28.8925 13.5665 29.4653 14.6747 29.4653ZM23.5443 29.4653H26.2846C27.3939 29.4653 27.9592 28.8925 27.9592 27.7832V11.6725C27.9592 10.5449 27.3939 10 26.2846 10H23.5443C22.435 10 21.8601 10.5728 21.8601 11.6725V27.7832C21.8601 28.8925 22.4287 29.4653 23.5443 29.4653Z" fill="white"/>
</g>
<defs>
<filter id="filter0_bd_718_13646" x="-10" y="-10" width="60" height="60" filterUnits="userSpaceOnUse" color-interpolation-filters="sRGB">
<feFlood flood-opacity="0" result="BackgroundImageFix"/>
<feGaussianBlur in="BackgroundImageFix" stdDeviation="5"/>
<feComposite in2="SourceAlpha" operator="in" result="effect1_backgroundBlur_718_13646"/>
<feColorMatrix in="SourceAlpha" type="matrix" values="0 0 0 0 0 0 0 0 0 0 0 0 0 0 0 0 0 0 127 0" result="hardAlpha"/>
<feOffset dy="1"/>
<feGaussianBlur stdDeviation="1.5"/>
<feColorMatrix type="matrix" values="0 0 0 0 0 0 0 0 0 0 0 0 0 0 0 0 0 0 0.2 0"/>
<feBlend mode="normal" in2="effect1_backgroundBlur_718_13646" result="effect2_dropShadow_718_13646"/>
<feBlend mode="normal" in="SourceGraphic" in2="effect2_dropShadow_718_13646" result="shape"/>
</filter>
</defs>
</svg>
