<svg width="32" height="32" viewBox="0 0 32 32" fill="none" xmlns="http://www.w3.org/2000/svg">
<g filter="url(#filter0_bd_761_16756)">
<path d="M10 10C10 8.89543 10.8954 8 12 8C13.1046 8 14 8.89543 14 10V22C14 23.1046 13.1046 24 12 24C10.8954 24 10 23.1046 10 22V10Z" stroke="white"/>
<path d="M18 10C18 8.89543 18.8954 8 20 8C21.1046 8 22 8.89543 22 10V22C22 23.1046 21.1046 24 20 24C18.8954 24 18 23.1046 18 22V10Z" stroke="white"/>
</g>
<defs>
<filter id="filter0_bd_761_16756" x="-10" y="-10" width="52" height="52" filterUnits="userSpaceOnUse" color-interpolation-filters="sRGB">
<feFlood flood-opacity="0" result="BackgroundImageFix"/>
<feGaussianBlur in="BackgroundImageFix" stdDeviation="5"/>
<feComposite in2="SourceAlpha" operator="in" result="effect1_backgroundBlur_761_16756"/>
<feColorMatrix in="SourceAlpha" type="matrix" values="0 0 0 0 0 0 0 0 0 0 0 0 0 0 0 0 0 0 127 0" result="hardAlpha"/>
<feOffset dy="1"/>
<feGaussianBlur stdDeviation="1.5"/>
<feColorMatrix type="matrix" values="0 0 0 0 0 0 0 0 0 0 0 0 0 0 0 0 0 0 0.2 0"/>
<feBlend mode="normal" in2="effect1_backgroundBlur_761_16756" result="effect2_dropShadow_761_16756"/>
<feBlend mode="normal" in="SourceGraphic" in2="effect2_dropShadow_761_16756" result="shape"/>
</filter>
</defs>
</svg>
