<svg width="32" height="32" viewBox="0 0 32 32" fill="none" xmlns="http://www.w3.org/2000/svg">
<g filter="url(#filter0_bd_761_16765)">
<path d="M9.28875 18.2969H10.9469C10.9942 18.2969 11.0367 18.3113 11.0754 18.3463L13.6393 20.6411C13.9426 20.912 14.1763 21.0382 14.4827 21.0382C14.9088 21.0382 15.2357 20.7218 15.2357 20.291V11.3751C15.2357 10.9442 14.9088 10.5981 14.4731 10.5981C14.1709 10.5981 13.9648 10.7318 13.6393 11.025L11.0754 13.2996C11.0356 13.3336 10.9942 13.349 10.9469 13.349H9.28875C8.43304 13.349 8 13.7979 8 14.704V16.9477C8 17.8528 8.43783 18.2969 9.28875 18.2969ZM9.38633 17.2694C9.1935 17.2694 9.10059 17.1754 9.10059 16.9826V14.6681C9.10059 14.4715 9.1935 14.3775 9.38633 14.3775H11.2119C11.3699 14.3775 11.4898 14.3452 11.624 14.2227L13.9611 12.0954C13.9882 12.0672 14.0174 12.0518 14.0572 12.0518C14.0991 12.0518 14.1351 12.082 14.1351 12.1356V19.4969C14.1351 19.5505 14.0991 19.5876 14.0572 19.5876C14.0269 19.5876 13.993 19.5702 13.9611 19.542L11.624 17.4243C11.4898 17.3054 11.3699 17.2694 11.2119 17.2694H9.38633Z" fill="white"/>
<path d="M17.2201 18.4015C17.461 18.5609 17.7857 18.5074 17.9643 18.2514C18.4347 17.6252 18.7137 16.7346 18.7137 15.8123C18.7137 14.8899 18.4347 14.0041 17.9643 13.371C17.7857 13.1171 17.461 13.0578 17.2201 13.2231C16.9357 13.4096 16.8849 13.7529 17.1078 14.0794C17.4305 14.5379 17.6126 15.1615 17.6126 15.8123C17.6126 16.463 17.4247 17.0808 17.1078 17.5452C16.8896 17.8754 16.9357 18.2101 17.2201 18.4015Z" fill="white"/>
<path d="M19.5462 19.9615C19.8084 20.1284 20.1315 20.0643 20.3122 19.7995C21.0729 18.7261 21.5127 17.2896 21.5127 15.8123C21.5127 14.3351 21.0777 12.889 20.3122 11.8241C20.1315 11.5603 19.8084 11.4962 19.5462 11.6631C19.2704 11.8364 19.2312 12.1779 19.4341 12.4802C20.0555 13.3863 20.4137 14.5797 20.4137 15.8123C20.4137 17.0449 20.046 18.2277 19.4341 19.1434C19.2371 19.4457 19.2704 19.7883 19.5462 19.9615Z" fill="white"/>
<path d="M21.8924 21.5407C22.1444 21.7096 22.485 21.6355 22.6657 21.358C23.6955 19.8226 24.3103 17.9103 24.3103 15.8154C24.3103 13.7169 23.6811 11.8131 22.6657 10.274C22.485 9.99058 22.1444 9.9223 21.8924 10.0913C21.6171 10.2683 21.5784 10.6066 21.7686 10.9069C22.6627 12.2654 23.2189 13.9515 23.2189 15.8154C23.2189 17.6746 22.6627 19.3713 21.7686 20.7251C21.5784 21.0253 21.6171 21.3626 21.8924 21.5407Z" fill="white"/>
</g>
<defs>
<filter id="filter0_bd_761_16765" x="-10" y="-10" width="52" height="52" filterUnits="userSpaceOnUse" color-interpolation-filters="sRGB">
<feFlood flood-opacity="0" result="BackgroundImageFix"/>
<feGaussianBlur in="BackgroundImageFix" stdDeviation="5"/>
<feComposite in2="SourceAlpha" operator="in" result="effect1_backgroundBlur_761_16765"/>
<feColorMatrix in="SourceAlpha" type="matrix" values="0 0 0 0 0 0 0 0 0 0 0 0 0 0 0 0 0 0 127 0" result="hardAlpha"/>
<feOffset dy="1"/>
<feGaussianBlur stdDeviation="1.5"/>
<feColorMatrix type="matrix" values="0 0 0 0 0 0 0 0 0 0 0 0 0 0 0 0 0 0 0.2 0"/>
<feBlend mode="normal" in2="effect1_backgroundBlur_761_16765" result="effect2_dropShadow_761_16765"/>
<feBlend mode="normal" in="SourceGraphic" in2="effect2_dropShadow_761_16765" result="shape"/>
</filter>
</defs>
</svg>
