<svg width="40" height="40" viewBox="0 0 40 40" fill="none" xmlns="http://www.w3.org/2000/svg">
<g filter="url(#filter0_bd_1413_34452)">
<path d="M20 20C25.3157 20 29.625 17.6495 29.625 14.75C29.625 11.8505 25.3157 9.5 20 9.5C14.6843 9.5 10.375 11.8505 10.375 14.75C10.375 17.6495 14.6843 20 20 20Z" stroke="white" stroke-width="2" stroke-linecap="round" stroke-linejoin="round"/>
<path d="M10.375 14.75V20C10.375 22.8995 14.6843 25.25 20 25.25C25.3157 25.25 29.625 22.8995 29.625 20V14.75" stroke="white" stroke-width="2" stroke-linecap="round" stroke-linejoin="round"/>
<path d="M10.375 20V25.25C10.375 28.1495 14.6843 30.5 20 30.5C25.3157 30.5 29.625 28.1495 29.625 25.25V20" stroke="white" stroke-width="2" stroke-linecap="round" stroke-linejoin="round"/>
</g>
<defs>
<filter id="filter0_bd_1413_34452" x="-10" y="-10" width="60" height="60" filterUnits="userSpaceOnUse" color-interpolation-filters="sRGB">
<feFlood flood-opacity="0" result="BackgroundImageFix"/>
<feGaussianBlur in="BackgroundImageFix" stdDeviation="5"/>
<feComposite in2="SourceAlpha" operator="in" result="effect1_backgroundBlur_1413_34452"/>
<feColorMatrix in="SourceAlpha" type="matrix" values="0 0 0 0 0 0 0 0 0 0 0 0 0 0 0 0 0 0 127 0" result="hardAlpha"/>
<feOffset dy="1"/>
<feGaussianBlur stdDeviation="1.5"/>
<feColorMatrix type="matrix" values="0 0 0 0 0 0 0 0 0 0 0 0 0 0 0 0 0 0 0.2 0"/>
<feBlend mode="normal" in2="effect1_backgroundBlur_1413_34452" result="effect2_dropShadow_1413_34452"/>
<feBlend mode="normal" in="SourceGraphic" in2="effect2_dropShadow_1413_34452" result="shape"/>
</filter>
</defs>
</svg>
