<svg width="32" height="32" viewBox="0 0 32 32" fill="none" xmlns="http://www.w3.org/2000/svg">
<g filter="url(#filter0_bd_1413_34662)">
<path d="M21.5005 13C21.5005 14.6569 19.0381 16 16.0005 16C12.9629 16 10.5005 14.6569 10.5005 13M21.5005 13C21.5005 11.3431 19.0381 10 16.0005 10C12.9629 10 10.5005 11.3431 10.5005 13M21.5005 13V16M10.5005 13V16M10.5005 16C10.5005 17.6569 12.9629 19 16.0005 19C19.0381 19 21.5005 17.6569 21.5005 16M10.5005 16V19C10.5005 20.6569 12.9629 22 16.0005 22C19.0381 22 21.5005 20.6569 21.5005 19V16" stroke="white" stroke-linecap="round" stroke-linejoin="round"/>
</g>
<defs>
<filter id="filter0_bd_1413_34662" x="-10" y="-10" width="52" height="52" filterUnits="userSpaceOnUse" color-interpolation-filters="sRGB">
<feFlood flood-opacity="0" result="BackgroundImageFix"/>
<feGaussianBlur in="BackgroundImageFix" stdDeviation="5"/>
<feComposite in2="SourceAlpha" operator="in" result="effect1_backgroundBlur_1413_34662"/>
<feColorMatrix in="SourceAlpha" type="matrix" values="0 0 0 0 0 0 0 0 0 0 0 0 0 0 0 0 0 0 127 0" result="hardAlpha"/>
<feOffset dy="1"/>
<feGaussianBlur stdDeviation="1.5"/>
<feColorMatrix type="matrix" values="0 0 0 0 0 0 0 0 0 0 0 0 0 0 0 0 0 0 0.2 0"/>
<feBlend mode="normal" in2="effect1_backgroundBlur_1413_34662" result="effect2_dropShadow_1413_34662"/>
<feBlend mode="normal" in="SourceGraphic" in2="effect2_dropShadow_1413_34662" result="shape"/>
</filter>
</defs>
</svg>
